<svg width="32" height="32" viewBox="0 0 32 32" fill="none" xmlns="http://www.w3.org/2000/svg">
<path d="M9.86665 9.33325H6.13331C5.92114 9.33325 5.71766 9.41754 5.56763 9.56757C5.4176 9.7176 5.33331 9.92108 5.33331 10.1333V21.8666C5.33331 21.9716 5.35401 22.0757 5.39421 22.1727C5.43441 22.2698 5.49334 22.358 5.56763 22.4323C5.64191 22.5066 5.73011 22.5655 5.82717 22.6057C5.92423 22.6459 6.02826 22.6666 6.13331 22.6666H9.86665C9.9717 22.6666 10.0757 22.6459 10.1728 22.6057C10.2699 22.5655 10.358 22.5066 10.4323 22.4323C10.5066 22.358 10.5655 22.2698 10.6057 22.1727C10.646 22.0757 10.6666 21.9716 10.6666 21.8666V10.1333C10.6666 9.92108 10.5824 9.7176 10.4323 9.56757C10.2823 9.41754 10.0788 9.33325 9.86665 9.33325ZM25.8666 9.33325H22.1333C21.9211 9.33325 21.7177 9.41754 21.5676 9.56757C21.4176 9.7176 21.3333 9.92108 21.3333 10.1333V21.8666C21.3333 21.9716 21.354 22.0757 21.3942 22.1727C21.4344 22.2698 21.4933 22.358 21.5676 22.4323C21.6419 22.5066 21.7301 22.5655 21.8272 22.6057C21.9242 22.6459 22.0283 22.6666 22.1333 22.6666H25.8666C25.9717 22.6666 26.0757 22.6459 26.1728 22.6057C26.2699 22.5655 26.358 22.5066 26.4323 22.4323C26.5066 22.358 26.5655 22.2698 26.6058 22.1727C26.646 22.0757 26.6666 21.9716 26.6666 21.8666V10.1333C26.6666 9.92108 26.5824 9.7176 26.4323 9.56757C26.2823 9.41754 26.0788 9.33325 25.8666 9.33325Z" stroke="white" stroke-width="1.5" stroke-linecap="round" stroke-linejoin="round"/>
<path d="M10.6666 16H21.3333M1.33331 19.2V12.8C1.33331 12.5878 1.4176 12.3843 1.56763 12.2343C1.71766 12.0843 1.92114 12 2.13331 12H4.53331C4.74549 12 4.94897 12.0843 5.099 12.2343C5.24903 12.3843 5.33331 12.5878 5.33331 12.8V19.2C5.33331 19.4122 5.24903 19.6157 5.099 19.7657C4.94897 19.9157 4.74549 20 4.53331 20H2.13331C1.92114 20 1.71766 19.9157 1.56763 19.7657C1.4176 19.6157 1.33331 19.4122 1.33331 19.2ZM30.6666 19.2V12.8C30.6666 12.5878 30.5824 12.3843 30.4323 12.2343C30.2823 12.0843 30.0788 12 29.8666 12H27.4666C27.2545 12 27.051 12.0843 26.901 12.2343C26.7509 12.3843 26.6666 12.5878 26.6666 12.8V19.2C26.6666 19.4122 26.7509 19.6157 26.901 19.7657C27.051 19.9157 27.2545 20 27.4666 20H29.8666C30.0788 20 30.2823 19.9157 30.4323 19.7657C30.5824 19.6157 30.6666 19.4122 30.6666 19.2Z" stroke="white" stroke-width="1.5" stroke-linecap="round" stroke-linejoin="round"/>
</svg>
